<mxfile host="app.diagrams.net" modified="2025-09-30T10:30:00.000Z" agent="5.0" etag="def456" version="28.2.5" type="device">
  <diagram name="UC-02 System Authentifizierung" id="bpmn-uc02">
    <mxGraphModel dx="1426" dy="743" grid="1" gridSize="10" guides="1" tooltips="1" connect="1" arrows="1" fold="1" page="1" pageScale="1" pageWidth="1169" pageHeight="827" math="0" shadow="0">
      <root>
        <mxCell id="0" />
        <mxCell id="1" parent="0" />
        
        <mxCell id="pool1" value="Benutzer-Authentifizierung Prozess" style="swimlane;html=1;childLayout=stackLayout;resizeParent=1;resizeParentMax=0;horizontal=1;startSize=20;horizontalStack=0;whiteSpace=wrap;" vertex="1" parent="1">
          <mxGeometry x="30" y="40" width="1100" height="600" as="geometry" />
        </mxCell>
        
        <mxCell id="lane1" value="Benutzer" style="swimlane;html=1;startSize=20;horizontal=0;" vertex="1" parent="pool1">
          <mxGeometry y="20" width="1100" height="150" as="geometry" />
        </mxCell>
        
        <mxCell id="start1" value="Login benötigt" style="ellipse;whiteSpace=wrap;html=1;aspect=fixed;fillColor=#d5e8d4;strokeColor=#82b366;" vertex="1" parent="lane1">
          <mxGeometry x="40" y="50" width="50" height="50" as="geometry" />
        </mxCell>
        
        <mxCell id="task1" value="Login-Seite aufrufen" style="rounded=1;whiteSpace=wrap;html=1;fillColor=#dae8fc;strokeColor=#6c8ebf;" vertex="1" parent="lane1">
          <mxGeometry x="120" y="55" width="80" height="40" as="geometry" />
        </mxCell>
        
        <mxCell id="task2" value="E-Mail eingeben" style="rounded=1;whiteSpace=wrap;html=1;fillColor=#dae8fc;strokeColor=#6c8ebf;" vertex="1" parent="lane1">
          <mxGeometry x="230" y="55" width="80" height="40" as="geometry" />
        </mxCell>
        
        <mxCell id="task3" value="Passwort eingeben" style="rounded=1;whiteSpace=wrap;html=1;fillColor=#dae8fc;strokeColor=#6c8ebf;" vertex="1" parent="lane1">
          <mxGeometry x="340" y="55" width="80" height="40" as="geometry" />
        </mxCell>
        
        <mxCell id="task4" value="Anmelden klicken" style="rounded=1;whiteSpace=wrap;html=1;fillColor=#dae8fc;strokeColor=#6c8ebf;" vertex="1" parent="lane1">
          <mxGeometry x="450" y="55" width="80" height="40" as="geometry" />
        </mxCell>
        
        <mxCell id="task5" value="Passwort vergessen" style="rounded=1;whiteSpace=wrap;html=1;fillColor=#fff2cc;strokeColor=#d6b656;" vertex="1" parent="lane1">
          <mxGeometry x="230" y="105" width="80" height="35" as="geometry" />
        </mxCell>
        
        <mxCell id="task6" value="Navigation nutzen" style="rounded=1;whiteSpace=wrap;html=1;fillColor=#dae8fc;strokeColor=#6c8ebf;" vertex="1" parent="lane1">
          <mxGeometry x="990" y="55" width="80" height="40" as="geometry" />
        </mxCell>
        
        <mxCell id="lane2" value="System" style="swimlane;html=1;startSize=20;horizontal=0;" vertex="1" parent="pool1">
          <mxGeometry y="170" width="1100" height="200" as="geometry" />
        </mxCell>
        
        <mxCell id="task7" value="Daten validieren" style="rounded=1;whiteSpace=wrap;html=1;fillColor=#e1d5e7;strokeColor=#9673a6;" vertex="1" parent="lane2">
          <mxGeometry x="560" y="30" width="80" height="40" as="geometry" />
        </mxCell>
        
        <mxCell id="gateway1" value="" style="rhombus;whiteSpace=wrap;html=1;fillColor=#fff2cc;strokeColor=#d6b656;" vertex="1" parent="lane2">
          <mxGeometry x="675" y="40" width="30" height="20" as="geometry" />
        </mxCell>
        
        <mxCell id="task8" value="Account-Status prüfen" style="rounded=1;whiteSpace=wrap;html=1;fillColor=#e1d5e7;strokeColor=#9673a6;" vertex="1" parent="lane2">
          <mxGeometry x="735" y="30" width="80" height="40" as="geometry" />
        </mxCell>
        
        <mxCell id="gateway2" value="" style="rhombus;whiteSpace=wrap;html=1;fillColor=#fff2cc;strokeColor=#d6b656;" vertex="1" parent="lane2">
          <mxGeometry x="845" y="40" width="30" height="20" as="geometry" />
        </mxCell>
        
        <mxCell id="task9" value="Session erstellen" style="rounded=1;whiteSpace=wrap;html=1;fillColor=#e1d5e7;strokeColor=#9673a6;" vertex="1" parent="lane2">
          <mxGeometry x="905" y="30" width="80" height="40" as="geometry" />
        </mxCell>
        
        <mxCell id="task10" value="Fehlermeldung" style="rounded=1;whiteSpace=wrap;html=1;fillColor=#f8cecc;strokeColor=#b85450;" vertex="1" parent="lane2">
          <mxGeometry x="645" y="90" width="80" height="40" as="geometry" />
        </mxCell>
        
        <mxCell id="task11" value="Reset-Link senden" style="rounded=1;whiteSpace=wrap;html=1;fillColor=#e1d5e7;strokeColor=#9673a6;" vertex="1" parent="lane2">
          <mxGeometry x="230" y="150" width="80" height="40" as="geometry" />
        </mxCell>
        
        <mxCell id="task12" value="Account sperren" style="rounded=1;whiteSpace=wrap;html=1;fillColor=#f8cecc;strokeColor=#b85450;" vertex="1" parent="lane2">
          <mxGeometry x="815" y="90" width="80" height="40" as="geometry" />
        </mxCell>
        
        <mxCell id="lane3" value="Ergebnisse" style="swimlane;html=1;startSize=20;horizontal=0;" vertex="1" parent="pool1">
          <mxGeometry y="370" width="1100" height="130" as="geometry" />
        </mxCell>
        
        <mxCell id="end1" value="Erfolgreich angemeldet" style="ellipse;whiteSpace=wrap;html=1;aspect=fixed;fillColor=#d5e8d4;strokeColor=#82b366;strokeWidth=3;" vertex="1" parent="lane3">
          <mxGeometry x="1005" y="40" width="50" height="50" as="geometry" />
        </mxCell>
        
        <mxCell id="end2" value="Login fehlgeschlagen" style="ellipse;whiteSpace=wrap;html=1;aspect=fixed;fillColor=#f8cecc;strokeColor=#b85450;strokeWidth=3;" vertex="1" parent="lane3">
          <mxGeometry x="660" y="40" width="50" height="50" as="geometry" />
        </mxCell>
        
        <mxCell id="end3" value="Account gesperrt" style="ellipse;whiteSpace=wrap;html=1;aspect=fixed;fillColor=#f8cecc;strokeColor=#b85450;strokeWidth=3;" vertex="1" parent="lane3">
          <mxGeometry x="830" y="40" width="50" height="50" as="geometry" />
        </mxCell>
        
        <mxCell id="end4" value="Reset angefordert" style="ellipse;whiteSpace=wrap;html=1;aspect=fixed;fillColor=#fff2cc;strokeColor=#d6b656;strokeWidth=3;" vertex="1" parent="lane3">
          <mxGeometry x="245" y="40" width="50" height="50" as="geometry" />
        </mxCell>
        
        <mxCell id="flow1" value="" style="edgeStyle=orthogonalEdgeStyle;rounded=0;orthogonalLoop=1;jettySize=auto;html=1;" edge="1" parent="pool1" source="start1" target="task1">
          <mxGeometry relative="1" as="geometry" />
        </mxCell>
        
        <mxCell id="flow2" value="" style="edgeStyle=orthogonalEdgeStyle;rounded=0;orthogonalLoop=1;jettySize=auto;html=1;" edge="1" parent="pool1" source="task1" target="task2">
          <mxGeometry relative="1" as="geometry" />
        </mxCell>
        
        <mxCell id="flow3" value="" style="edgeStyle=orthogonalEdgeStyle;rounded=0;orthogonalLoop=1;jettySize=auto;html=1;" edge="1" parent="pool1" source="task2" target="task3">
          <mxGeometry relative="1" as="geometry" />
        </mxCell>
        
        <mxCell id="flow4" value="" style="edgeStyle=orthogonalEdgeStyle;rounded=0;orthogonalLoop=1;jettySize=auto;html=1;" edge="1" parent="pool1" source="task3" target="task4">
          <mxGeometry relative="1" as="geometry" />
        </mxCell>
        
        <mxCell id="flow5" value="" style="edgeStyle=orthogonalEdgeStyle;rounded=0;orthogonalLoop=1;jettySize=auto;html=1;" edge="1" parent="pool1" source="task4" target="task7">
          <mxGeometry relative="1" as="geometry">
            <Array as="points">
              <mxPoint x="490" y="200" />
              <mxPoint x="600" y="200" />
            </Array>
          </mxGeometry>
        </mxCell>
        
        <mxCell id="flow6" value="" style="edgeStyle=orthogonalEdgeStyle;rounded=0;orthogonalLoop=1;jettySize=auto;html=1;" edge="1" parent="pool1" source="task7" target="gateway1">
          <mxGeometry relative="1" as="geometry" />
        </mxCell>
        
        <mxCell id="flow7" value="Ungültig" style="edgeStyle=orthogonalEdgeStyle;rounded=0;orthogonalLoop=1;jettySize=auto;html=1;" edge="1" parent="pool1" source="gateway1" target="task10">
          <mxGeometry relative="1" as="geometry" />
        </mxCell>
        
        <mxCell id="flow8" value="Gültig" style="edgeStyle=orthogonalEdgeStyle;rounded=0;orthogonalLoop=1;jettySize=auto;html=1;" edge="1" parent="pool1" source="gateway1" target="task8">
          <mxGeometry relative="1" as="geometry" />
        </mxCell>
        
        <mxCell id="flow9" value="" style="edgeStyle=orthogonalEdgeStyle;rounded=0;orthogonalLoop=1;jettySize=auto;html=1;" edge="1" parent="pool1" source="task8" target="gateway2">
          <mxGeometry relative="1" as="geometry" />
        </mxCell>
        
        <mxCell id="flow10" value="Aktiv" style="edgeStyle=orthogonalEdgeStyle;rounded=0;orthogonalLoop=1;jettySize=auto;html=1;" edge="1" parent="pool1" source="gateway2" target="task9">
          <mxGeometry relative="1" as="geometry" />
        </mxCell>
        
        <mxCell id="flow11" value="Gesperrt" style="edgeStyle=orthogonalEdgeStyle;rounded=0;orthogonalLoop=1;jettySize=auto;html=1;" edge="1" parent="pool1" source="gateway2" target="task12">
          <mxGeometry relative="1" as="geometry" />
        </mxCell>
        
        <mxCell id="flow12" value="" style="edgeStyle=orthogonalEdgeStyle;rounded=0;orthogonalLoop=1;jettySize=auto;html=1;" edge="1" parent="pool1" source="task9" target="task6">
          <mxGeometry relative="1" as="geometry">
            <Array as="points">
              <mxPoint x="945" y="200" />
              <mxPoint x="1030" y="200" />
              <mxPoint x="1030" y="95" />
            </Array>
          </mxGeometry>
        </mxCell>
        
        <mxCell id="flow13" value="" style="edgeStyle=orthogonalEdgeStyle;rounded=0;orthogonalLoop=1;jettySize=auto;html=1;" edge="1" parent="pool1" source="task6" target="end1">
          <mxGeometry relative="1" as="geometry">
            <Array as="points">
              <mxPoint x="1030" y="400" />
            </Array>
          </mxGeometry>
        </mxCell>
        
        <mxCell id="flow14" value="" style="edgeStyle=orthogonalEdgeStyle;rounded=0;roundedCorner=1;orthogonalLoop=1;jettySize=auto;html=1;" edge="1" parent="pool1" source="task10" target="end2">
          <mxGeometry relative="1" as="geometry">
            <Array as="points">
              <mxPoint x="685" y="400" />
            </Array>
          </mxGeometry>
        </mxCell>
        
        <mxCell id="flow15" value="" style="edgeStyle=orthogonalEdgeStyle;rounded=0;orthogonalLoop=1;jettySize=auto;html=1;" edge="1" parent="pool1" source="task12" target="end3">
          <mxGeometry relative="1" as="geometry">
            <Array as="points">
              <mxPoint x="855" y="400" />
            </Array>
          </mxGeometry>
        </mxCell>
        
        <mxCell id="flow16" value="" style="edgeStyle=orthogonalEdgeStyle;rounded=0;orthogonalLoop=1;jettySize=auto;html=1;" edge="1" parent="pool1" source="task5" target="task11">
          <mxGeometry relative="1" as="geometry" />
        </mxCell>
        
        <mxCell id="flow17" value="" style="edgeStyle=orthogonalEdgeStyle;rounded=0;orthogonalLoop=1;jettySize=auto;html=1;" edge="1" parent="pool1" source="task11" target="end4">
          <mxGeometry relative="1" as="geometry">
            <Array as="points">
              <mxPoint x="270" y="400" />
            </Array>
          </mxGeometry>
        </mxCell>
        
        <mxCell id="flow18" value="Erneut" style="edgeStyle=orthogonalEdgeStyle;rounded=0;orthogonalLoop=1;jettySize=auto;html=1;" edge="1" parent="pool1" source="task10" target="task2">
          <mxGeometry relative="1" as="geometry">
            <Array as="points">
              <mxPoint x="685" y="150" />
              <mxPoint x="270" y="150" />
            </Array>
          </mxGeometry>
        </mxCell>
        
      </root>
    </mxGraphModel>
  </diagram>
</mxfile>
